# Blender v2.78 (sub 0) OBJ File: 'EnemySpaceShip.blend'
# www.blender.org
mtllib EnemySpaceShip.mtl
o Cube
v 0.673764 0.305413 -0.825559
v 1.396629 -0.487161 2.652354
v 0.673764 0.349579 -0.825558
v 0.781208 -0.122840 3.253514
v 0.781207 0.031536 3.253514
v 1.240348 0.180615 0.560630
v 1.882657 -0.282382 1.795311
v 0.530536 0.546160 -0.825558
v 0.660458 0.737870 0.561991
v 0.280575 0.263337 2.296130
v 1.240349 -0.000333 -0.372761
v 1.240349 0.180615 -0.372760
v 1.882657 -0.463331 0.861921
v 1.882657 -0.282382 0.861921
v 0.811413 0.789128 -0.557515
v 2.220800 -0.463330 2.234681
v 2.220800 -0.282381 1.795312
v 2.220800 -0.463330 0.861921
v 2.220800 -0.282381 0.861921
v 1.882657 -0.463331 2.234681
v 1.882657 -0.282382 2.234556
v 2.220800 -0.282381 2.234556
v 1.946092 -0.429385 2.234658
v 1.946092 -0.316327 2.234580
v 2.157365 -0.429384 2.234658
v 2.157365 -0.316327 2.234580
v 1.064235 0.317109 0.332451
v 0.542119 0.142237 3.037302
v 0.605363 0.443460 -0.825558
v 1.117978 0.368367 -0.557515
v 0.845504 0.498033 1.630241
v 0.538940 0.845265 1.726136
v 1.125746 0.180615 1.542580
v 0.956842 -0.105254 2.852853
v 1.048155 -0.493199 3.749253
v 1.048154 -0.312251 3.749127
v 1.386297 -0.312250 3.749127
v 1.111589 -0.459254 3.749229
v 1.111589 -0.346196 3.749151
v 1.322862 -0.459253 3.749229
v 1.322862 -0.346196 3.749151
v 1.386297 -0.493199 3.749253
v 2.220800 -0.463330 3.747721
v 1.882657 -0.463331 3.747721
v 1.882657 -0.282382 3.747596
v 2.220800 -0.282381 3.747596
v 1.946092 -0.429385 3.747698
v 1.946092 -0.316327 3.747619
v 2.157365 -0.429384 3.747698
v 2.157365 -0.316327 3.747619
v -0.673764 0.305413 -0.825559
v -1.396629 -0.487161 2.652354
v 0.000000 -0.000333 1.000000
v 0.000000 0.305413 -0.825559
v -0.673764 0.349579 -0.825558
v 0.000000 0.349579 -0.825559
v -0.781208 -0.122840 3.253514
v 0.000000 -0.157508 3.730758
v -0.781207 0.031536 3.253514
v 0.000000 0.023440 3.730758
v -1.240348 0.180615 0.560630
v -1.882657 -0.282382 1.795311
v -0.530536 0.546160 -0.825558
v -0.660458 0.737870 0.561991
v 0.000000 0.737870 0.561990
v 0.000000 0.546160 -0.825559
v -0.280575 0.263337 2.296130
v 0.000000 0.295141 3.200098
v -1.240349 -0.000333 -0.372761
v 0.000000 -0.000333 -0.372761
v -1.240349 0.180615 -0.372760
v -1.882657 -0.463331 0.861921
v -1.882657 -0.282382 0.861921
v -0.811413 0.789128 -0.557515
v 0.000000 0.789128 -0.557515
v -2.220800 -0.463330 2.234681
v -2.220800 -0.282381 1.795312
v -2.220800 -0.463330 0.861921
v -2.220800 -0.282381 0.861921
v -1.882657 -0.463331 2.234681
v -1.882657 -0.282382 2.234556
v -2.220800 -0.282381 2.234556
v -1.946092 -0.429385 2.234658
v -1.946092 -0.316327 2.234580
v -2.157365 -0.429384 2.234658
v -2.157365 -0.316327 2.234580
v 0.000000 0.443460 -0.825559
v -1.064235 0.317109 0.332451
v -0.542119 0.142237 3.037302
v -0.605363 0.443460 -0.825558
v 0.000000 0.153197 3.477330
v -1.117978 0.368367 -0.557515
v -0.845504 0.498033 1.630241
v -0.538940 0.845265 1.726136
v 0.000000 0.948491 1.700656
v 0.000000 -0.000333 2.156063
v -1.125746 0.180615 1.542580
v -0.956842 -0.105254 2.852853
v -1.048155 -0.493199 3.749253
v -1.048154 -0.312251 3.749127
v -1.386297 -0.312250 3.749127
v -1.111589 -0.459254 3.749229
v -1.111589 -0.346196 3.749151
v -1.322862 -0.459253 3.749229
v -1.322862 -0.346196 3.749151
v -1.386297 -0.493199 3.749253
v -2.220800 -0.463330 3.747721
v -1.882657 -0.463331 3.747721
v -1.882657 -0.282382 3.747596
v -2.220800 -0.282381 3.747596
v -1.946092 -0.429385 3.747698
v -1.946092 -0.316327 3.747619
v -2.157365 -0.429384 3.747698
v -2.157365 -0.316327 3.747619
vn -0.1164 -0.9876 -0.1052
vn 0.4741 0.3454 -0.8099
vn 0.8871 0.0000 -0.4615
vn 0.0000 0.0000 -1.0000
vn 0.5213 0.0000 0.8534
vn -0.0288 -0.9955 -0.0906
vn 0.8810 0.4025 0.2488
vn 0.1442 0.9409 0.3066
vn 0.5847 0.8112 0.0000
vn 0.6243 0.0000 -0.7812
vn -0.0000 0.9990 0.0457
vn 0.7388 0.6735 0.0232
vn 0.0000 -0.8288 -0.5596
vn 0.7741 0.6233 0.1107
vn -0.3010 -0.9489 -0.0943
vn 0.0000 0.7409 -0.6716
vn 1.0000 0.0000 0.0000
vn 0.0000 -1.0000 0.0000
vn -0.0000 1.0000 0.0000
vn -0.0000 0.9998 0.0197
vn -1.0000 -0.0000 0.0000
vn -0.8758 -0.0003 -0.4826
vn 0.0000 -0.9998 -0.0197
vn 0.5123 -0.2007 -0.8350
vn 0.2397 0.9082 0.3430
vn 0.6975 0.7152 0.0452
vn 0.7088 0.7043 0.0407
vn 0.7802 0.6015 0.1715
vn 0.5795 0.7769 0.2462
vn -0.3696 -0.9188 0.1388
vn 0.0878 0.9874 -0.1317
vn 0.0000 0.0007 1.0000
vn 0.8758 0.0003 0.4826
vn 0.1164 -0.9876 -0.1052
vn -0.4741 0.3454 -0.8099
vn -0.8871 0.0000 -0.4615
vn -0.5213 0.0000 0.8534
vn 0.0288 -0.9955 -0.0906
vn -0.8810 0.4025 0.2488
vn -0.1442 0.9409 0.3066
vn -0.5847 0.8112 0.0000
vn -0.6243 0.0000 -0.7812
vn -0.7388 0.6735 0.0232
vn -0.7741 0.6233 0.1107
vn 0.3010 -0.9489 -0.0943
vn 0.8758 -0.0003 -0.4826
vn -0.5123 -0.2007 -0.8350
vn -0.2397 0.9082 0.3430
vn -0.6975 0.7152 0.0452
vn -0.7088 0.7043 0.0407
vn -0.7802 0.6015 0.1715
vn -0.5795 0.7769 0.2462
vn 0.3696 -0.9188 0.1388
vn -0.0878 0.9874 -0.1317
vn -0.8758 0.0003 0.4826
vn 0.6033 0.6494 0.4630
vn 0.3125 0.9361 0.1615
vn 0.1870 0.8659 0.4639
vn -0.6033 0.6494 0.4630
vn -0.3125 0.9361 0.1615
vn -0.1870 0.8659 0.4639
usemtl Base
s off
f 11//1 2//1 53//1 70//1
f 30//2 29//2 8//2 15//2
f 13//3 11//3 12//3 14//3
f 29//4 87//4 66//4 8//4
f 4//5 5//5 60//5 58//5
f 3//4 1//4 54//4 56//4
f 96//6 34//6 4//6 58//6
f 34//7 33//7 5//7 4//7
f 13//4 14//4 19//4 18//4
f 6//8 2//8 20//8 7//8
f 12//9 6//9 7//9 14//9
f 1//10 3//10 12//10 11//10
f 15//11 75//11 65//11 9//11
f 31//12 27//12 9//12 32//12
f 1//13 11//13 70//13 54//13
f 27//14 30//14 15//14 9//14
f 2//15 11//15 13//15 20//15
f 8//16 66//16 75//16 15//16
f 18//17 19//17 17//17 16//17
f 20//18 13//18 18//18 16//18
f 17//19 7//19 21//19 22//19
f 14//19 7//19 17//19 19//19
f 25//20 23//20 38//20 40//20
f 7//21 20//21 21//21
f 16//17 17//17 22//17
f 21//22 20//22 35//22 36//22
f 26//22 25//22 40//22 41//22
f 24//23 26//23 41//23 39//23
f 12//24 3//24 29//24 30//24
f 3//4 56//4 87//4 29//4
f 60//25 5//25 28//25 91//25
f 33//26 6//26 27//26 31//26
f 6//27 12//27 30//27 27//27
f 2//28 6//28 33//28 34//28
f 5//29 33//29 31//29 28//29
f 53//30 2//30 34//30 96//30
f 9//31 65//31 95//31 32//31
f 37//32 36//32 39//32 41//32
f 36//32 35//32 38//32 39//32
f 42//32 37//32 41//32 40//32
f 35//32 42//32 40//32 38//32
f 23//33 24//33 39//33 38//33
f 22//20 21//20 36//20 37//20
f 16//33 22//33 37//33 42//33
f 20//23 16//23 42//23 35//23
f 26//19 24//19 48//19 50//19
f 25//17 26//17 50//17 49//17
f 20//17 21//17 45//17 44//17
f 23//18 25//18 49//18 47//18
f 24//21 23//21 47//21 48//21
f 21//18 22//18 46//18 45//18
f 22//21 16//21 43//21 46//21
f 16//19 20//19 44//19 43//19
f 69//34 70//34 53//34 52//34
f 92//35 74//35 63//35 90//35
f 72//36 73//36 71//36 69//36
f 90//4 63//4 66//4 87//4
f 57//37 58//37 60//37 59//37
f 55//4 56//4 54//4 51//4
f 96//38 58//38 57//38 98//38
f 98//39 57//39 59//39 97//39
f 72//4 78//4 79//4 73//4
f 61//40 62//40 80//40 52//40
f 71//41 73//41 62//41 61//41
f 51//42 69//42 71//42 55//42
f 74//11 64//11 65//11 75//11
f 93//43 94//43 64//43 88//43
f 51//13 54//13 70//13 69//13
f 88//44 64//44 74//44 92//44
f 52//45 80//45 72//45 69//45
f 63//16 74//16 75//16 66//16
f 78//21 76//21 77//21 79//21
f 80//18 76//18 78//18 72//18
f 77//19 82//19 81//19 62//19
f 73//19 79//19 77//19 62//19
f 85//20 104//20 102//20 83//20
f 62//17 81//17 80//17
f 76//21 82//21 77//21
f 81//46 100//46 99//46 80//46
f 86//46 105//46 104//46 85//46
f 84//23 103//23 105//23 86//23
f 71//47 92//47 90//47 55//47
f 55//4 90//4 87//4 56//4
f 60//48 91//48 89//48 59//48
f 97//49 93//49 88//49 61//49
f 61//50 88//50 92//50 71//50
f 52//51 98//51 97//51 61//51
f 59//52 89//52 93//52 97//52
f 53//53 96//53 98//53 52//53
f 64//54 94//54 95//54 65//54
f 101//32 105//32 103//32 100//32
f 100//32 103//32 102//32 99//32
f 106//32 104//32 105//32 101//32
f 99//32 102//32 104//32 106//32
f 83//55 102//55 103//55 84//55
f 82//20 101//20 100//20 81//20
f 76//55 106//55 101//55 82//55
f 80//23 99//23 106//23 76//23
f 86//19 114//19 112//19 84//19
f 85//21 113//21 114//21 86//21
f 80//21 108//21 109//21 81//21
f 83//18 111//18 113//18 85//18
f 84//17 112//17 111//17 83//17
f 81//18 109//18 110//18 82//18
f 82//17 110//17 107//17 76//17
f 76//19 107//19 108//19 80//19
usemtl Black
f 32//56 95//56 68//56 10//56
f 91//57 28//57 10//57 68//57
f 28//58 31//58 32//58 10//58
f 94//59 67//59 68//59 95//59
f 91//60 68//60 67//60 89//60
f 89//61 67//61 94//61 93//61
