# Blender v2.79 (sub 0) OBJ File: 'SingleWeapon.blend'
# www.blender.org
mtllib SingleWeapon.mtl
o Cube.001
v -0.014185 -0.008599 0.006368
v -0.014185 0.008360 0.006356
v 0.017506 -0.008599 0.006368
v 0.017505 0.008360 0.006356
v -0.014185 -0.008459 0.209019
v -0.014185 0.008500 0.209007
v 0.017506 -0.008459 0.209019
v 0.017505 0.008500 0.209007
v -0.005223 -0.003663 0.209015
v -0.005223 0.003704 0.209010
v 0.008543 -0.003662 0.209015
v 0.008543 0.003704 0.209010
v -0.005223 -0.003634 0.249951
v -0.005223 0.003732 0.249946
v 0.008543 -0.003634 0.249951
v 0.008543 0.003732 0.249946
vn -0.0000 1.0000 -0.0007
vn -0.0000 0.0007 1.0000
vn 0.0000 -1.0000 0.0007
vn -1.0000 -0.0000 0.0000
vn 1.0000 0.0000 -0.0000
usemtl Base
s off
f 4//1 2//1 6//1 8//1
f 8//2 6//2 10//2 12//2
f 1//3 3//3 7//3 5//3
f 2//4 1//4 5//4 6//4
f 3//5 4//5 8//5 7//5
f 12//1 10//1 14//1 16//1
f 6//2 5//2 9//2 10//2
f 7//2 8//2 12//2 11//2
f 5//2 7//2 11//2 9//2
f 14//2 13//2 15//2 16//2
f 11//5 12//5 16//5 15//5
f 9//3 11//3 15//3 13//3
f 10//4 9//4 13//4 14//4
