# Blender v2.78 (sub 0) OBJ File: 'SpaceShip.blend'
# www.blender.org
mtllib SpaceShip.mtl
o Cube
v -0.050244 0.963617 0.077451
v -0.096088 0.942598 -0.077234
v -0.050244 0.967035 0.077451
v -0.096038 0.956599 -0.043237
v -0.062841 0.942598 -0.331396
v -0.062841 0.956599 -0.331396
v -0.241625 0.869673 -0.179311
v -0.241574 0.883674 -0.145314
v -0.050244 0.967035 0.077451
v -0.096038 0.956599 -0.043237
v -0.241574 0.883674 -0.145314
v -0.039162 0.982245 0.077435
v -0.043161 1.018918 -0.077312
v -0.017375 0.977622 -0.290403
v -0.095931 0.942598 0.028985
v -0.095931 0.956599 0.028985
v -0.241467 0.869673 -0.073092
v -0.241467 0.883674 -0.073092
v -0.095931 0.956599 0.028985
v -0.241467 0.883674 -0.073092
v -0.050526 1.018918 0.028918
v -0.267789 0.869673 -0.179272
v -0.267739 0.883674 -0.145275
v -0.267631 0.869673 -0.073053
v -0.267631 0.883674 -0.073053
v -0.241625 0.869673 -0.179311
v -0.241625 0.883674 -0.179301
v -0.267789 0.869673 -0.179272
v -0.267789 0.883674 -0.179262
v -0.246533 0.872300 -0.179302
v -0.246533 0.881048 -0.179296
v -0.262881 0.872300 -0.179278
v -0.262881 0.881048 -0.179271
v -0.074378 0.986361 -0.059505
v -0.041127 0.966639 -0.311819
v -0.044951 0.974299 0.077443
v -0.074247 0.986361 0.028953
v -0.065609 0.981160 -0.126045
v -0.041899 1.008027 -0.133500
v -0.087283 0.956599 -0.119230
v -0.087320 0.942598 -0.144261
v 0.050474 0.963617 0.077301
v 0.095859 0.942598 -0.077519
v -0.000115 0.942598 -0.077376
v 0.000115 0.963617 0.077376
v 0.050474 0.967035 0.077301
v 0.095909 0.956599 -0.043522
v 0.000115 0.967035 0.077376
v 0.061856 0.942598 -0.331581
v -0.000618 0.942598 -0.416571
v 0.061856 0.956599 -0.331581
v -0.000618 0.956599 -0.416571
v 0.241091 0.869673 -0.180027
v 0.241142 0.883674 -0.146031
v 0.050474 0.967035 0.077301
v 0.095909 0.956599 -0.043522
v 0.241142 0.883674 -0.146031
v 0.039391 0.982245 0.077318
v 0.042932 1.018918 -0.077440
v -0.000115 1.018918 -0.077376
v 0.000115 0.982245 0.077376
v 0.016512 0.977622 -0.290454
v -0.000557 0.977622 -0.375511
v 0.096016 0.942598 0.028700
v 0.000043 0.942598 0.028843
v 0.096016 0.956599 0.028700
v 0.241249 0.869673 -0.073808
v 0.241249 0.883674 -0.073808
v 0.096016 0.956599 0.028700
v 0.241249 0.883674 -0.073808
v 0.050611 1.018918 0.028768
v 0.000043 1.018918 0.028843
v 0.267256 0.869673 -0.180066
v 0.267306 0.883674 -0.146070
v 0.267413 0.869673 -0.073847
v 0.267413 0.883674 -0.073847
v 0.241091 0.869673 -0.180027
v 0.241091 0.883674 -0.180018
v 0.267256 0.869673 -0.180066
v 0.267256 0.883674 -0.180057
v 0.246000 0.872300 -0.180033
v 0.246000 0.881048 -0.180027
v 0.262347 0.872300 -0.180057
v 0.262347 0.881048 -0.180051
v 0.000115 0.974299 0.077376
v 0.074201 0.986361 -0.059726
v 0.040201 0.966639 -0.311940
v 0.045181 0.974299 0.077309
v -0.000589 0.966639 -0.396962
v 0.074332 0.986361 0.028732
v 0.065235 0.981160 -0.126239
v 0.041503 1.008027 -0.133624
v -0.000195 1.016015 -0.131590
v -0.000248 0.942598 -0.166828
v 0.086929 0.956599 -0.119488
v 0.086892 0.942598 -0.144520
vn 0.0000 -1.0000 -0.0000
vn -0.6821 0.4976 0.5359
vn -0.5742 0.0000 0.8187
vn 0.0015 0.0000 1.0000
vn -0.8075 0.0000 -0.5899
vn -0.9866 0.1094 -0.1209
vn -0.1928 0.9074 -0.3734
vn -0.4484 0.8939 0.0007
vn -0.7277 0.0000 0.6859
vn 0.0000 0.0000 1.0000
vn 0.0000 1.0000 0.0000
vn -0.7566 0.6375 -0.1454
vn 0.0006 -0.9176 0.3974
vn -0.7678 0.6400 -0.0285
vn 0.4484 -0.8939 -0.0007
vn 0.0009 0.7978 0.6029
vn -1.0000 0.0000 0.0015
vn -0.0015 0.0007 -1.0000
vn 1.0000 -0.0000 -0.0015
vn -0.3931 0.8884 -0.2372
vn -0.8003 0.5875 -0.1198
vn -0.8082 0.5889 0.0012
vn -0.9608 0.2511 -0.1177
vn -0.6015 0.7922 -0.1029
vn -0.0904 0.9881 -0.1244
vn 0.6837 0.4976 0.5338
vn 0.5767 0.0000 0.8170
vn 0.8057 0.0000 -0.5923
vn 0.9863 0.1094 -0.1238
vn 0.1917 0.9074 -0.3740
vn 0.4484 0.8939 -0.0007
vn 0.7297 0.0000 0.6838
vn 0.7562 0.6375 -0.1477
vn 0.7677 0.6400 -0.0308
vn -0.4484 -0.8939 0.0007
vn 0.3924 0.8884 -0.2383
vn 0.7999 0.5875 -0.1222
vn 0.8082 0.5889 -0.0012
vn 0.9604 0.2511 -0.1206
vn 0.6012 0.7922 -0.1046
vn 0.0900 0.9881 -0.1247
vn -0.3780 0.9084 -0.1787
vn -0.4914 0.8551 -0.1655
vn -0.5783 0.7941 -0.1868
vn 0.3775 0.9084 -0.1798
vn 0.4909 0.8551 -0.1670
vn 0.5778 0.7941 -0.1885
usemtl Base
s off
f 15//1 2//1 44//1 65//1
f 37//2 36//2 12//2 21//2
f 17//3 15//3 19//3 20//3
f 36//4 85//4 61//4 12//4
f 5//5 6//5 52//5 50//5
f 3//4 1//4 45//4 48//4
f 94//1 41//1 5//1 50//1
f 41//6 40//6 6//6 5//6
f 17//4 18//4 25//4 24//4
f 4//7 2//7 7//7 8//7
f 19//8 10//8 11//8 20//8
f 1//9 3//9 16//9 15//9
f 16//10 4//10 10//10 19//10
f 4//10 8//10 11//10 10//10
f 21//11 72//11 60//11 13//11
f 38//12 34//12 13//12 39//12
f 1//13 15//13 65//13 45//13
f 34//14 37//14 21//14 13//14
f 2//15 15//15 17//15 7//15
f 8//10 18//10 20//10 11//10
f 3//10 16//10 19//10 9//10
f 12//16 61//16 72//16 21//16
f 24//17 25//17 23//17 22//17
f 7//1 17//1 24//1 22//1
f 23//11 8//11 27//11 29//11
f 18//11 8//11 23//11 25//11
f 29//18 27//18 31//18 33//18
f 8//19 7//19 26//19 27//19
f 22//17 23//17 29//17 28//17
f 7//10 22//10 28//10 26//10
f 27//18 26//18 30//18 31//18
f 28//18 29//18 33//18 32//18
f 26//18 28//18 32//18 30//18
f 16//2 3//2 36//2 37//2
f 3//4 48//4 85//4 36//4
f 52//20 6//20 35//20 89//20
f 40//21 4//21 34//21 38//21
f 4//22 16//22 37//22 34//22
f 2//23 4//23 40//23 41//23
f 6//24 40//24 38//24 35//24
f 44//1 2//1 41//1 94//1
f 13//25 60//25 93//25 39//25
f 64//1 65//1 44//1 43//1
f 90//26 71//26 58//26 88//26
f 67//27 70//27 69//27 64//27
f 88//4 58//4 61//4 85//4
f 49//28 50//28 52//28 51//28
f 46//4 48//4 45//4 42//4
f 94//1 50//1 49//1 96//1
f 96//29 49//29 51//29 95//29
f 67//4 75//4 76//4 68//4
f 47//30 54//30 53//30 43//30
f 69//31 70//31 57//31 56//31
f 42//32 64//32 66//32 46//32
f 66//10 69//10 56//10 47//10
f 47//10 56//10 57//10 54//10
f 71//11 59//11 60//11 72//11
f 91//33 92//33 59//33 86//33
f 42//13 45//13 65//13 64//13
f 86//34 59//34 71//34 90//34
f 43//35 53//35 67//35 64//35
f 54//10 57//10 70//10 68//10
f 46//10 55//10 69//10 66//10
f 58//16 71//16 72//16 61//16
f 75//19 73//19 74//19 76//19
f 53//1 73//1 75//1 67//1
f 74//11 80//11 78//11 54//11
f 68//11 76//11 74//11 54//11
f 80//18 84//18 82//18 78//18
f 54//17 78//17 77//17 53//17
f 73//19 79//19 80//19 74//19
f 53//10 77//10 79//10 73//10
f 78//18 82//18 81//18 77//18
f 79//18 83//18 84//18 80//18
f 77//18 81//18 83//18 79//18
f 66//26 90//26 88//26 46//26
f 46//4 88//4 85//4 48//4
f 52//36 89//36 87//36 51//36
f 95//37 91//37 86//37 47//37
f 47//38 86//38 90//38 66//38
f 43//39 96//39 95//39 47//39
f 51//40 87//40 91//40 95//40
f 44//1 94//1 96//1 43//1
f 59//41 92//41 93//41 60//41
usemtl Black
f 39//42 93//42 63//42 14//42
f 89//43 35//43 14//43 63//43
f 35//44 38//44 39//44 14//44
f 92//45 62//45 63//45 93//45
f 89//46 63//46 62//46 87//46
f 87//47 62//47 92//47 91//47
