# Blender v2.78 (sub 0) OBJ File: 'SpaceShip.blend'
# www.blender.org
mtllib Weapons.mtl
o Cube.001
v -0.246533 0.872300 -0.179302
v -0.246533 0.881048 -0.179296
v -0.262881 0.872300 -0.179278
v -0.262881 0.881048 -0.179271
v -0.246688 0.872372 -0.283838
v -0.246688 0.881120 -0.283832
v -0.263036 0.872372 -0.283813
v -0.263036 0.881120 -0.283807
v -0.251312 0.874846 -0.283829
v -0.251312 0.878646 -0.283826
v -0.258413 0.874846 -0.283818
v -0.258413 0.878646 -0.283816
v -0.251343 0.874861 -0.304945
v -0.251343 0.878661 -0.304942
v -0.258444 0.874861 -0.304935
v -0.258444 0.878661 -0.304932
v 0.246000 0.872300 -0.180033
v 0.246000 0.881048 -0.180027
v 0.262347 0.872300 -0.180057
v 0.262347 0.881048 -0.180051
v 0.245845 0.872372 -0.284569
v 0.245845 0.881120 -0.284563
v 0.262192 0.872372 -0.284593
v 0.262192 0.881120 -0.284587
v 0.250468 0.874846 -0.284574
v 0.250468 0.878646 -0.284571
v 0.257569 0.874846 -0.284584
v 0.257569 0.878646 -0.284582
v 0.250437 0.874861 -0.305690
v 0.250437 0.878661 -0.305687
v 0.257537 0.874861 -0.305701
v 0.257537 0.878661 -0.305698
vn 0.0000 1.0000 0.0007
vn -0.0015 0.0007 -1.0000
vn -0.0000 -1.0000 -0.0007
vn 1.0000 -0.0000 -0.0015
vn -1.0000 0.0000 0.0015
usemtl Base
s off
f 4//1 2//1 6//1 8//1
f 8//2 6//2 10//2 12//2
f 1//3 3//3 7//3 5//3
f 2//4 1//4 5//4 6//4
f 3//5 4//5 8//5 7//5
f 12//1 10//1 14//1 16//1
f 6//2 5//2 9//2 10//2
f 7//2 8//2 12//2 11//2
f 5//2 7//2 11//2 9//2
f 14//2 13//2 15//2 16//2
f 11//5 12//5 16//5 15//5
f 9//3 11//3 15//3 13//3
f 10//4 9//4 13//4 14//4
f 20//1 24//1 22//1 18//1
f 24//2 28//2 26//2 22//2
f 17//3 21//3 23//3 19//3
f 18//5 22//5 21//5 17//5
f 19//4 23//4 24//4 20//4
f 28//1 32//1 30//1 26//1
f 22//2 26//2 25//2 21//2
f 23//2 27//2 28//2 24//2
f 21//2 25//2 27//2 23//2
f 30//2 32//2 31//2 29//2
f 27//4 31//4 32//4 28//4
f 25//3 29//3 31//3 27//3
f 26//5 30//5 29//5 25//5
